<svg width="15" height="15" viewBox="0 0 15 15" fill="none" xmlns="http://www.w3.org/2000/svg">
<path d="M5.625 7.5L6.875 8.75L9.375 6.25" stroke="#704A24" stroke-width="1.5" stroke-linecap="round" stroke-linejoin="round"/>
<path d="M7.49977 1.875C8.95967 3.16661 10.8651 3.8391 12.8123 3.75C13.0957 4.71439 13.1824 5.7259 13.0672 6.72444C12.952 7.72298 12.6372 8.68818 12.1417 9.5627C11.6461 10.4372 10.9798 11.2032 10.1824 11.8152C9.385 12.4271 8.47272 12.8725 7.49977 13.125C6.52678 12.8726 5.61445 12.4272 4.81699 11.8153C4.01953 11.2034 3.35322 10.4374 2.85765 9.56283C2.36208 8.68829 2.04736 7.72306 1.9322 6.72449C1.81703 5.72592 1.90378 4.71438 2.18727 3.75C4.13448 3.8391 6.03988 3.16661 7.49977 1.875Z" stroke="#704A24" stroke-width="1.5" stroke-linecap="round" stroke-linejoin="round"/>
</svg>
