<svg width="360" height="310" viewBox="0 0 360 310" fill="none" xmlns="http://www.w3.org/2000/svg">
<mask id="mask0_908_8112" style="mask-type:alpha" maskUnits="userSpaceOnUse" x="31" y="30" width="298" height="150">
<path d="M48.75 180C38.3947 180 29.879 171.573 31.1699 161.298C35.3017 128.411 50.2482 97.6198 73.934 73.934C102.064 45.8035 140.218 30 180 30C219.782 30 257.936 45.8035 286.066 73.934C309.752 97.6198 324.698 128.411 328.83 161.298C330.121 171.573 321.605 180 311.25 180C300.895 180 292.659 171.548 290.941 161.336C287.087 138.422 276.196 117.097 259.549 100.45C238.452 79.3526 209.837 67.5 180 67.5C150.163 67.5 121.548 79.3526 100.45 100.45C83.8042 117.097 72.9134 138.422 69.0585 161.336C67.3406 171.548 59.1053 180 48.75 180Z" fill="#FDDBB8"/>
</mask>
<g mask="url(#mask0_908_8112)">
<mask id="path-3-inside-1_908_8112" fill="white">
<path d="M48.75 180C38.3947 180 29.879 171.573 31.1699 161.298C35.3017 128.411 50.2482 97.6198 73.934 73.934C102.064 45.8035 140.218 30 180 30C219.782 30 257.936 45.8035 286.066 73.934C309.752 97.6198 324.698 128.411 328.83 161.298C330.121 171.573 321.605 180 311.25 180C300.895 180 292.659 171.548 290.941 161.336C287.087 138.422 276.196 117.097 259.549 100.45C238.452 79.3526 209.837 67.5 180 67.5C150.163 67.5 121.548 79.3526 100.45 100.45C83.8042 117.097 72.9134 138.422 69.0585 161.336C67.3406 171.548 59.1053 180 48.75 180Z"/>
</mask>
<path d="M48.75 180C38.3947 180 29.879 171.573 31.1699 161.298C35.3017 128.411 50.2482 97.6198 73.934 73.934C102.064 45.8035 140.218 30 180 30C219.782 30 257.936 45.8035 286.066 73.934C309.752 97.6198 324.698 128.411 328.83 161.298C330.121 171.573 321.605 180 311.25 180C300.895 180 292.659 171.548 290.941 161.336C287.087 138.422 276.196 117.097 259.549 100.45C238.452 79.3526 209.837 67.5 180 67.5C150.163 67.5 121.548 79.3526 100.45 100.45C83.8042 117.097 72.9134 138.422 69.0585 161.336C67.3406 171.548 59.1053 180 48.75 180Z" fill="#FDDBB8" stroke="#FCB56F" stroke-width="2" mask="url(#path-3-inside-1_908_8112)"/>
<g filter="url(#filter0_d_908_8112)">
<path d="M306.777 213.97C316.78 216.65 322.824 226.994 318.918 236.585C306.415 267.281 284.009 293.155 255 309.904C220.547 329.795 179.604 335.185 141.177 324.889C102.75 314.592 69.9871 289.452 50.0958 255C33.3474 225.991 26.8796 192.38 31.4003 159.544C32.8127 149.286 43.2193 143.35 53.2218 146.03C63.2243 148.71 68.9913 159.006 68.0077 169.314C65.8008 192.445 70.8011 215.862 82.5718 236.25C97.4902 262.089 122.062 280.944 150.882 288.666C179.703 296.389 210.41 292.346 236.25 277.428C256.637 265.657 272.676 247.877 282.33 226.742C286.633 217.323 296.775 211.29 306.777 213.97Z" fill="#FBA651"/>
</g>
</g>
<path d="M164.154 174V131.65L154.669 137.425V129.27L164.154 123.6H171.609V174H164.154ZM193.685 174V131.65L184.2 137.425V129.27L193.685 123.6H201.14V174H193.685Z" fill="#704A24"/>
<path d="M177.051 194L177.06 187.943C177.06 187.241 176.88 186.695 176.52 186.305C176.16 185.909 175.686 185.711 175.098 185.711C174.738 185.711 174.408 185.795 174.108 185.963C173.814 186.125 173.574 186.371 173.388 186.701C173.208 187.025 173.118 187.433 173.118 187.925L172.209 187.466C172.197 186.782 172.341 186.182 172.641 185.666C172.947 185.15 173.361 184.751 173.883 184.469C174.405 184.181 174.99 184.037 175.638 184.037C176.688 184.037 177.501 184.352 178.077 184.982C178.653 185.612 178.941 186.449 178.941 187.493L178.932 194H177.051ZM165.396 194V184.28H167.07V187.088H167.286V194H165.396ZM171.228 194L171.237 187.979C171.237 187.271 171.057 186.716 170.697 186.314C170.343 185.912 169.866 185.711 169.266 185.711C168.672 185.711 168.192 185.915 167.826 186.323C167.466 186.731 167.286 187.265 167.286 187.925L166.386 187.349C166.386 186.713 166.539 186.146 166.845 185.648C167.151 185.15 167.565 184.757 168.087 184.469C168.609 184.181 169.2 184.037 169.86 184.037C170.55 184.037 171.138 184.184 171.624 184.478C172.11 184.766 172.479 185.171 172.731 185.693C172.989 186.215 173.118 186.821 173.118 187.511L173.109 194H171.228ZM181.458 182.687V180.86H183.339V182.687H181.458ZM181.458 194V184.28H183.339V194H181.458ZM192.863 194V189.221C192.863 188.843 192.83 188.456 192.764 188.06C192.704 187.658 192.584 187.286 192.404 186.944C192.23 186.602 191.981 186.326 191.657 186.116C191.339 185.906 190.922 185.801 190.406 185.801C190.07 185.801 189.752 185.858 189.452 185.972C189.152 186.08 188.888 186.257 188.66 186.503C188.438 186.749 188.261 187.073 188.129 187.475C188.003 187.877 187.94 188.366 187.94 188.942L186.77 188.501C186.77 187.619 186.935 186.842 187.265 186.17C187.595 185.492 188.069 184.964 188.687 184.586C189.305 184.208 190.052 184.019 190.928 184.019C191.6 184.019 192.164 184.127 192.62 184.343C193.076 184.559 193.445 184.844 193.727 185.198C194.015 185.546 194.234 185.927 194.384 186.341C194.534 186.755 194.636 187.16 194.69 187.556C194.744 187.952 194.771 188.3 194.771 188.6V194H192.863ZM186.032 194V184.28H187.715V187.088H187.94V194H186.032Z" fill="#704A24"/>
<path fill-rule="evenodd" clip-rule="evenodd" d="M120 219.75C125.108 219.75 129.25 223.891 129.25 229C129.25 234.108 125.108 238.25 120 238.25C114.891 238.25 110.75 234.108 110.75 229C110.75 223.891 114.891 219.75 120 219.75Z" stroke="#704A24" stroke-width="1.5" stroke-linecap="round" stroke-linejoin="round"/>
<path d="M115.8 229.3L119.1 232.6L125.1 226.6" stroke="#704A24" stroke-width="1.5" stroke-linecap="round"/>
<path d="M148.669 236.27C147.373 236.27 146.269 235.988 145.357 235.424C144.445 234.854 143.746 234.062 143.26 233.048C142.78 232.034 142.54 230.858 142.54 229.52C142.54 228.182 142.78 227.006 143.26 225.992C143.746 224.978 144.445 224.189 145.357 223.625C146.269 223.055 147.373 222.77 148.669 222.77C149.959 222.77 151.06 223.055 151.972 223.625C152.89 224.189 153.589 224.978 154.069 225.992C154.549 227.006 154.789 228.182 154.789 229.52C154.789 230.858 154.549 232.034 154.069 233.048C153.589 234.062 152.89 234.854 151.972 235.424C151.06 235.988 149.959 236.27 148.669 236.27ZM148.669 234.479C149.587 234.491 150.349 234.29 150.955 233.876C151.567 233.456 152.026 232.874 152.332 232.13C152.638 231.38 152.791 230.51 152.791 229.52C152.791 228.53 152.638 227.666 152.332 226.928C152.026 226.184 151.567 225.605 150.955 225.191C150.349 224.777 149.587 224.567 148.669 224.561C147.751 224.549 146.986 224.75 146.374 225.164C145.768 225.578 145.312 226.16 145.006 226.91C144.7 227.66 144.544 228.53 144.538 229.52C144.532 230.51 144.682 231.377 144.988 232.121C145.294 232.859 145.753 233.435 146.365 233.849C146.983 234.263 147.751 234.473 148.669 234.479ZM156.584 236V226.28H158.258V228.638L158.024 228.332C158.144 228.02 158.3 227.735 158.492 227.477C158.684 227.213 158.906 226.997 159.158 226.829C159.404 226.649 159.677 226.511 159.977 226.415C160.283 226.313 160.595 226.253 160.913 226.235C161.231 226.211 161.537 226.226 161.831 226.28V228.044C161.513 227.96 161.159 227.936 160.769 227.972C160.385 228.008 160.031 228.131 159.707 228.341C159.401 228.539 159.158 228.779 158.978 229.061C158.804 229.343 158.678 229.658 158.6 230.006C158.522 230.348 158.483 230.711 158.483 231.095V236H156.584ZM167.23 236.27C166.324 236.27 165.541 236.045 164.881 235.595C164.227 235.145 163.72 234.533 163.36 233.759C163.006 232.979 162.829 232.103 162.829 231.131C162.829 230.153 163.009 229.28 163.369 228.512C163.729 227.738 164.239 227.129 164.899 226.685C165.565 226.235 166.354 226.01 167.266 226.01C168.184 226.01 168.955 226.235 169.579 226.685C170.209 227.129 170.683 227.738 171.001 228.512C171.325 229.286 171.487 230.159 171.487 231.131C171.487 232.103 171.325 232.976 171.001 233.75C170.677 234.524 170.2 235.139 169.57 235.595C168.94 236.045 168.16 236.27 167.23 236.27ZM167.491 234.569C168.109 234.569 168.613 234.422 169.003 234.128C169.393 233.834 169.678 233.429 169.858 232.913C170.038 232.397 170.128 231.803 170.128 231.131C170.128 230.459 170.035 229.865 169.849 229.349C169.669 228.833 169.387 228.431 169.003 228.143C168.625 227.855 168.142 227.711 167.554 227.711C166.93 227.711 166.417 227.864 166.015 228.17C165.613 228.476 165.313 228.887 165.115 229.403C164.923 229.919 164.827 230.495 164.827 231.131C164.827 231.773 164.923 232.355 165.115 232.877C165.313 233.393 165.607 233.804 165.997 234.11C166.393 234.416 166.891 234.569 167.491 234.569ZM170.128 236V229.007H169.912V223.04H171.802V236H170.128ZM178.632 236.27C177.666 236.27 176.817 236.06 176.085 235.64C175.359 235.214 174.792 234.623 174.384 233.867C173.982 233.105 173.781 232.223 173.781 231.221C173.781 230.159 173.979 229.238 174.375 228.458C174.777 227.678 175.335 227.075 176.049 226.649C176.763 226.223 177.594 226.01 178.542 226.01C179.532 226.01 180.375 226.241 181.071 226.703C181.767 227.159 182.286 227.81 182.628 228.656C182.976 229.502 183.114 230.507 183.042 231.671H181.161V230.987C181.149 229.859 180.933 229.025 180.513 228.485C180.099 227.945 179.466 227.675 178.614 227.675C177.672 227.675 176.964 227.972 176.49 228.566C176.016 229.16 175.779 230.018 175.779 231.14C175.779 232.208 176.016 233.036 176.49 233.624C176.964 234.206 177.648 234.497 178.542 234.497C179.13 234.497 179.637 234.365 180.063 234.101C180.495 233.831 180.831 233.447 181.071 232.949L182.916 233.534C182.538 234.404 181.965 235.079 181.197 235.559C180.429 236.033 179.574 236.27 178.632 236.27ZM175.167 231.671V230.204H182.106V231.671H175.167ZM185.061 236V226.28H186.735V228.638L186.501 228.332C186.621 228.02 186.777 227.735 186.969 227.477C187.161 227.213 187.383 226.997 187.635 226.829C187.881 226.649 188.154 226.511 188.454 226.415C188.76 226.313 189.072 226.253 189.39 226.235C189.708 226.211 190.014 226.226 190.308 226.28V228.044C189.99 227.96 189.636 227.936 189.246 227.972C188.862 228.008 188.508 228.131 188.184 228.341C187.878 228.539 187.635 228.779 187.455 229.061C187.281 229.343 187.155 229.658 187.077 230.006C186.999 230.348 186.96 230.711 186.96 231.095V236H185.061ZM200.188 236.27C199.258 236.27 198.478 236.045 197.848 235.595C197.218 235.139 196.741 234.524 196.417 233.75C196.093 232.976 195.931 232.103 195.931 231.131C195.931 230.159 196.09 229.286 196.408 228.512C196.732 227.738 197.206 227.129 197.83 226.685C198.46 226.235 199.234 226.01 200.152 226.01C201.064 226.01 201.85 226.235 202.51 226.685C203.176 227.129 203.689 227.738 204.049 228.512C204.409 229.28 204.589 230.153 204.589 231.131C204.589 232.103 204.409 232.979 204.049 233.759C203.695 234.533 203.188 235.145 202.528 235.595C201.874 236.045 201.094 236.27 200.188 236.27ZM195.616 240.32V226.28H197.29V233.273H197.506V240.32H195.616ZM199.927 234.569C200.527 234.569 201.022 234.416 201.412 234.11C201.808 233.804 202.102 233.393 202.294 232.877C202.492 232.355 202.591 231.773 202.591 231.131C202.591 230.495 202.492 229.919 202.294 229.403C202.102 228.887 201.805 228.476 201.403 228.17C201.001 227.864 200.488 227.711 199.864 227.711C199.276 227.711 198.79 227.855 198.406 228.143C198.028 228.431 197.746 228.833 197.56 229.349C197.38 229.865 197.29 230.459 197.29 231.131C197.29 231.803 197.38 232.397 197.56 232.913C197.74 233.429 198.025 233.834 198.415 234.128C198.805 234.422 199.309 234.569 199.927 234.569ZM206.756 236V222.77H208.637V236H206.756ZM214.085 236.27C213.365 236.27 212.762 236.138 212.276 235.874C211.79 235.604 211.421 235.25 211.169 234.812C210.923 234.368 210.8 233.882 210.8 233.354C210.8 232.862 210.887 232.43 211.061 232.058C211.235 231.686 211.493 231.371 211.835 231.113C212.177 230.849 212.597 230.636 213.095 230.474C213.527 230.348 214.016 230.237 214.562 230.141C215.108 230.045 215.681 229.955 216.281 229.871C216.887 229.787 217.487 229.703 218.081 229.619L217.397 229.997C217.409 229.235 217.247 228.671 216.911 228.305C216.581 227.933 216.011 227.747 215.201 227.747C214.691 227.747 214.223 227.867 213.797 228.107C213.371 228.341 213.074 228.731 212.906 229.277L211.151 228.737C211.391 227.903 211.847 227.24 212.519 226.748C213.197 226.256 214.097 226.01 215.219 226.01C216.089 226.01 216.845 226.16 217.487 226.46C218.135 226.754 218.609 227.222 218.909 227.864C219.065 228.182 219.161 228.518 219.197 228.872C219.233 229.226 219.251 229.607 219.251 230.015V236H217.586V233.777L217.91 234.065C217.508 234.809 216.995 235.364 216.371 235.73C215.753 236.09 214.991 236.27 214.085 236.27ZM214.418 234.731C214.952 234.731 215.411 234.638 215.795 234.452C216.179 234.26 216.488 234.017 216.722 233.723C216.956 233.429 217.109 233.123 217.181 232.805C217.283 232.517 217.34 232.193 217.352 231.833C217.37 231.473 217.379 231.185 217.379 230.969L217.991 231.194C217.397 231.284 216.857 231.365 216.371 231.437C215.885 231.509 215.444 231.581 215.048 231.653C214.658 231.719 214.31 231.8 214.004 231.896C213.746 231.986 213.515 232.094 213.311 232.22C213.113 232.346 212.954 232.499 212.834 232.679C212.72 232.859 212.663 233.078 212.663 233.336C212.663 233.588 212.726 233.822 212.852 234.038C212.978 234.248 213.17 234.416 213.428 234.542C213.686 234.668 214.016 234.731 214.418 234.731ZM225.746 236.27C224.75 236.27 223.904 236.048 223.208 235.604C222.512 235.16 221.978 234.551 221.606 233.777C221.24 233.003 221.054 232.124 221.048 231.14C221.054 230.138 221.246 229.253 221.624 228.485C222.002 227.711 222.542 227.105 223.244 226.667C223.946 226.229 224.789 226.01 225.773 226.01C226.835 226.01 227.741 226.274 228.491 226.802C229.247 227.33 229.745 228.053 229.985 228.971L228.113 229.511C227.927 228.965 227.621 228.542 227.195 228.242C226.775 227.936 226.292 227.783 225.746 227.783C225.128 227.783 224.621 227.93 224.225 228.224C223.829 228.512 223.535 228.908 223.343 229.412C223.151 229.916 223.052 230.492 223.046 231.14C223.052 232.142 223.28 232.952 223.73 233.57C224.186 234.188 224.858 234.497 225.746 234.497C226.352 234.497 226.841 234.359 227.213 234.083C227.591 233.801 227.879 233.399 228.077 232.877L229.985 233.327C229.667 234.275 229.142 235.004 228.41 235.514C227.678 236.018 226.79 236.27 225.746 236.27ZM235.866 236.27C234.9 236.27 234.051 236.06 233.319 235.64C232.593 235.214 232.026 234.623 231.618 233.867C231.216 233.105 231.015 232.223 231.015 231.221C231.015 230.159 231.213 229.238 231.609 228.458C232.011 227.678 232.569 227.075 233.283 226.649C233.997 226.223 234.828 226.01 235.776 226.01C236.766 226.01 237.609 226.241 238.305 226.703C239.001 227.159 239.52 227.81 239.862 228.656C240.21 229.502 240.348 230.507 240.276 231.671H238.395V230.987C238.383 229.859 238.167 229.025 237.747 228.485C237.333 227.945 236.7 227.675 235.848 227.675C234.906 227.675 234.198 227.972 233.724 228.566C233.25 229.16 233.013 230.018 233.013 231.14C233.013 232.208 233.25 233.036 233.724 233.624C234.198 234.206 234.882 234.497 235.776 234.497C236.364 234.497 236.871 234.365 237.297 234.101C237.729 233.831 238.065 233.447 238.305 232.949L240.15 233.534C239.772 234.404 239.199 235.079 238.431 235.559C237.663 236.033 236.808 236.27 235.866 236.27ZM232.401 231.671V230.204H239.34V231.671H232.401ZM246.156 236.27C245.25 236.27 244.467 236.045 243.807 235.595C243.153 235.145 242.646 234.533 242.286 233.759C241.932 232.979 241.755 232.103 241.755 231.131C241.755 230.153 241.935 229.28 242.295 228.512C242.655 227.738 243.165 227.129 243.825 226.685C244.491 226.235 245.28 226.01 246.192 226.01C247.11 226.01 247.881 226.235 248.505 226.685C249.135 227.129 249.609 227.738 249.927 228.512C250.251 229.286 250.413 230.159 250.413 231.131C250.413 232.103 250.251 232.976 249.927 233.75C249.603 234.524 249.126 235.139 248.496 235.595C247.866 236.045 247.086 236.27 246.156 236.27ZM246.417 234.569C247.035 234.569 247.539 234.422 247.929 234.128C248.319 233.834 248.604 233.429 248.784 232.913C248.964 232.397 249.054 231.803 249.054 231.131C249.054 230.459 248.961 229.865 248.775 229.349C248.595 228.833 248.313 228.431 247.929 228.143C247.551 227.855 247.068 227.711 246.48 227.711C245.856 227.711 245.343 227.864 244.941 228.17C244.539 228.476 244.239 228.887 244.041 229.403C243.849 229.919 243.753 230.495 243.753 231.131C243.753 231.773 243.849 232.355 244.041 232.877C244.239 233.393 244.533 233.804 244.923 234.11C245.319 234.416 245.817 234.569 246.417 234.569ZM249.054 236V229.007H248.838V223.04H250.728V236H249.054Z" fill="#1C140C"/>
<defs>
<filter id="filter0_d_908_8112" x="19.999" y="135.387" width="310.119" height="204.613" filterUnits="userSpaceOnUse" color-interpolation-filters="sRGB">
<feFlood flood-opacity="0" result="BackgroundImageFix"/>
<feColorMatrix in="SourceAlpha" type="matrix" values="0 0 0 0 0 0 0 0 0 0 0 0 0 0 0 0 0 0 127 0" result="hardAlpha"/>
<feOffset/>
<feGaussianBlur stdDeviation="5"/>
<feComposite in2="hardAlpha" operator="out"/>
<feColorMatrix type="matrix" values="0 0 0 0 0.984314 0 0 0 0 0.65098 0 0 0 0 0.317647 0 0 0 0.25 0"/>
<feBlend mode="normal" in2="BackgroundImageFix" result="effect1_dropShadow_908_8112"/>
<feBlend mode="normal" in="SourceGraphic" in2="effect1_dropShadow_908_8112" result="shape"/>
</filter>
</defs>
</svg>
